<?xml version="1.0" encoding="UTF-8"?>
<svg id="_Слой_1" data-name="Слой_1" xmlns="http://www.w3.org/2000/svg" version="1.1" viewBox="0 0 512 512">
  <!-- Generator: Adobe Illustrator 29.5.0, SVG Export Plug-In . SVG Version: 2.1.0 Build 137)  -->
  <defs>
    <style>
      .st0 {
        fill: #fff;
      }
    </style>
  </defs>
  <path class="st0" d="M256,6C117.9,6,6,117.9,6,256s111.9,250,250,250,250-111.9,250-250S394.1,6,256,6ZM193.2,334.9l-1.9,1.6c-1.7,1.4-2.9,3.4-3.4,5.6l-14.7,64.8c-1.6,6.9-5.5,13-11.2,17.2h0c-4.9,3.7-10.9,5.7-17,5.8l-51.8,1.1,31-135.4c2.3-10,9.1-18.4,18.4-22.8l1.5-.7c4.9-2.3,10.2-3.5,15.6-3.5h66.2l-29,61.6c-.8,1.8-2.1,3.4-3.6,4.7ZM409,212.6l-.6,10.8c-.6,9.5-2.4,18.9-5.5,28l-1.3,3.8c-3,8.9-7.3,17.4-12.6,25.2l-1.7,2.5c-4.3,6.3-9.2,12.1-14.7,17.4l-3,2.8c-7.1,6.8-15.1,12.6-23.8,17.2l-6.4,3.4c-8.2,4.3-17,7.6-26,9.6h-.4c-7.8,1.9-15.6,3.3-23.6,3.3l-66.9-2,30.6-64.6,31.3-1.3c2.9,0,5.8-.3,8.7-.8l7-1.2c8.8-1.5,17-5.4,23.8-11.1l.7-.6c8.5-7.1,14.3-16.9,16.7-27.7v-.4c1.8-7.7,1.6-15.8-.3-23.4h0c-2.7-10.3-8.5-19.5-16.7-26.2l-3.3-2.7c-8.6-7.1-19.4-11.2-30.6-11.5l-70.4-2.1-12.9,80.9h-70.2l26.6-132.4c.4-2.1,1.2-4.2,2.4-6.1,3.5-5.8,9.8-9.2,16.6-9l121,3.1c14.7.4,29.2,3.8,42.6,10.1l1.3.6c15,7,28.1,17.5,38.4,30.5,8.4,10.6,14.6,22.7,18.4,35.7l.5,1.8c3.5,11.9,4.9,24.2,4.2,36.6Z"/>
</svg>